<svg width="17" height="17" viewBox="0 0 17 17" fill="none" xmlns="http://www.w3.org/2000/svg">
<path d="M7.49948 3.23504V14.3667C7.49924 14.7121 7.37711 15.0463 7.15461 15.3105C6.9321 15.5747 6.62351 15.7518 6.28319 15.8108C5.94287 15.8698 5.59266 15.8067 5.29426 15.6328C4.99585 15.4589 4.76841 15.1852 4.65198 14.86L2.86282 9.73504M2.86282 9.73504C2.1555 9.4343 1.57381 8.89926 1.21618 8.21893C0.858547 7.5386 0.746948 6.75561 0.900264 6.00246C1.05358 5.2493 1.4624 4.57225 2.05753 4.08587C2.65266 3.5995 3.39755 3.33367 4.16615 3.33337H5.69282C9.10948 3.33337 12.047 2.30504 13.3328 0.833374V12.5C12.047 11.0284 9.11032 10 5.69282 10H4.16615C3.71835 10.0007 3.27503 9.91001 2.86282 9.73504ZM13.3328 9.16671C13.9959 9.16671 14.6317 8.90332 15.1006 8.43447C15.5694 7.96563 15.8328 7.32975 15.8328 6.66671C15.8328 6.00367 15.5694 5.36778 15.1006 4.89894C14.6317 4.4301 13.9959 4.16671 13.3328 4.16671" stroke="#1447E6" stroke-width="1.66667" stroke-linecap="round" stroke-linejoin="round"/>
</svg>
