<svg width="20" height="15" viewBox="0 0 20 15" fill="none" xmlns="http://www.w3.org/2000/svg">
<path d="M15.3629 9.23314C15.6339 8.68352 15.7771 8.07968 15.7771 7.45834C15.7771 5.24379 13.9756 3.44232 11.7611 3.44232C10.4412 3.44232 9.20944 4.09665 8.46333 5.1695C8.41513 5.16806 8.36751 5.16347 8.31903 5.16347C6.12055 5.16347 4.24019 6.60121 3.64008 8.65856C3.47456 8.62844 3.30101 8.60578 3.15558 8.60578C1.41549 8.60578 0.0001297 10.0214 0.0001297 11.7612C0.0001297 13.501 1.41549 14.9167 3.15558 14.9167H13.4825C15.2223 14.9167 16.6379 13.501 16.6379 11.7612C16.6379 10.7262 16.1348 9.80887 15.3629 9.23314ZM11.7611 4.58976C13.3428 4.58976 14.6296 5.87661 14.6296 7.45834C14.6296 7.9024 14.5264 8.33326 14.3325 8.7254C14.0614 8.64938 13.7771 8.60578 13.4825 8.60578C13.3368 8.60578 13.1635 8.62844 12.9977 8.65856C12.5364 7.07768 11.3184 5.86599 9.78202 5.38809C10.3093 4.88522 11.0144 4.58976 11.7611 4.58976ZM13.4825 13.7692H3.15558C2.04859 13.7692 1.14756 12.8682 1.14756 11.7612C1.14756 10.6542 2.04859 9.75321 3.15558 9.75321C3.23504 9.75321 3.36298 9.77272 3.4978 9.79969V10.3269C3.4978 10.6436 3.75482 10.9006 4.07152 10.9006C4.38821 10.9006 4.64523 10.6436 4.64523 10.3269V9.40353C4.95303 7.60981 6.49146 6.31091 8.31903 6.31091C10.1469 6.31091 11.6856 7.61038 11.9928 9.40497V10.3269C11.9928 10.6436 12.2499 10.9006 12.5666 10.9006C12.8832 10.9006 13.1403 10.6436 13.1403 10.3269V9.79997C13.2754 9.77301 13.4039 9.75321 13.4825 9.75321C14.5895 9.75321 15.4905 10.6542 15.4905 11.7612C15.4905 12.8682 14.5895 13.7692 13.4825 13.7692Z" fill="#787486"/>
<path d="M11.7611 2.29487C12.0778 2.29487 12.3348 2.03784 12.3348 1.72115V0.573718C12.3348 0.257025 12.0778 0 11.7611 0C11.4441 0 11.1874 0.257025 11.1874 0.573718V1.72115C11.1874 2.03784 11.4441 2.29487 11.7611 2.29487Z" fill="#787486"/>
<path d="M18.6457 6.88461H17.4982C17.1813 6.88461 16.9245 7.14164 16.9245 7.45833C16.9245 7.77502 17.1813 8.03205 17.4982 8.03205H18.6457C18.9624 8.03205 19.2194 7.77502 19.2194 7.45833C19.2194 7.14164 18.9624 6.88461 18.6457 6.88461Z" fill="#787486"/>
<path d="M15.8182 3.97502C15.965 3.97502 16.1116 3.91908 16.2238 3.80692L17.035 2.99568C17.2591 2.77165 17.2591 2.40848 17.035 2.18445C16.811 1.96041 16.4478 1.96041 16.2238 2.18445L15.4125 2.99568C15.1885 3.21972 15.1885 3.58288 15.4125 3.80692C15.5244 3.91908 15.6713 3.97502 15.8182 3.97502Z" fill="#787486"/>
<path d="M7.29827 3.80692C7.41043 3.91908 7.55702 3.97502 7.70389 3.97502C7.85076 3.97502 7.99735 3.91908 8.10951 3.80692C8.33354 3.58288 8.33354 3.21972 8.10951 2.99568L7.29827 2.18445C7.07424 1.96041 6.71107 1.96041 6.48704 2.18445C6.263 2.40848 6.263 2.77165 6.48704 2.99568L7.29827 3.80692Z" fill="#787486"/>
</svg>
