<svg width="17" height="15" viewBox="0 0 17 15" fill="none" xmlns="http://www.w3.org/2000/svg">
<path d="M14.1666 14.1667H2.49992C2.05789 14.1667 1.63397 13.9911 1.32141 13.6785C1.00885 13.366 0.833252 12.942 0.833252 12.5V2.50001C0.833252 2.05798 1.00885 1.63406 1.32141 1.3215C1.63397 1.00894 2.05789 0.833344 2.49992 0.833344H10.8333C11.2753 0.833344 11.6992 1.00894 12.0118 1.3215C12.3243 1.63406 12.4999 2.05798 12.4999 2.50001V3.33334M14.1666 14.1667C13.7246 14.1667 13.3006 13.9911 12.9881 13.6785C12.6755 13.366 12.4999 12.942 12.4999 12.5V3.33334M14.1666 14.1667C14.6086 14.1667 15.0325 13.9911 15.3451 13.6785C15.6577 13.366 15.8333 12.942 15.8333 12.5V5.00001C15.8333 4.55798 15.6577 4.13406 15.3451 3.8215C15.0325 3.50894 14.6086 3.33334 14.1666 3.33334H12.4999M9.16659 0.833344H5.83325M4.16659 10.8333H9.16659M4.16659 4.16668H9.16659V7.50001H4.16659V4.16668Z" stroke="#1447E6" stroke-width="1.66667" stroke-linecap="round" stroke-linejoin="round"/>
</svg>
