<svg width="19" height="19" viewBox="0 0 19 19" fill="none" xmlns="http://www.w3.org/2000/svg">
<path d="M9.29297 0.100084C9.23062 0.101037 9.16935 0.116554 9.11406 0.145396L0.714061 4.5454C0.649404 4.57935 0.595275 4.63035 0.55754 4.69287C0.519806 4.7554 0.499906 4.82706 0.499998 4.90008V6.10008C0.500009 6.20617 0.542155 6.3079 0.617167 6.38292C0.69218 6.45793 0.793915 6.50007 0.899998 6.50008H1.3V7.06024C1.3 7.545 1.64572 7.9581 2.1 8.06883V15.3048H0.939842L1.00625 15.3102C0.51344 15.2273 0.0999985 15.65 0.0999985 16.1126V17.2118C0.0999985 17.6839 0.47362 18.1001 0.939842 18.1001H17.6203C18.0865 18.1001 18.4602 17.715 18.4602 17.2524V16.1532C18.4602 15.6906 18.0865 15.3048 17.6203 15.3048H16.5V8.06883C16.9543 7.9581 17.3 7.545 17.3 7.06024V6.50008H17.7C17.8061 6.50007 17.9078 6.45793 17.9828 6.38292C18.0578 6.3079 18.1 6.20617 18.1 6.10008V4.90008C18.1001 4.82706 18.0802 4.7554 18.0425 4.69287C18.0047 4.63035 17.9506 4.57935 17.8859 4.5454L9.48594 0.145396C9.42643 0.114343 9.36007 0.0987607 9.29297 0.100084ZM9.3 0.952428L17.3 5.14227V5.70008H16.9672C16.924 5.69294 16.8799 5.69294 16.8367 5.70008H12.9617C12.9393 5.69633 12.9165 5.6945 12.8937 5.69462C12.8744 5.69504 12.855 5.69686 12.8359 5.70008H11.3672C11.324 5.69294 11.2799 5.69294 11.2367 5.70008H7.36172C7.33926 5.69633 7.31652 5.6945 7.29375 5.69462C7.27437 5.69504 7.25505 5.69686 7.23594 5.70008H5.76719C5.72399 5.69294 5.67991 5.69294 5.63672 5.70008H1.76172C1.73926 5.69633 1.71652 5.6945 1.69375 5.69462C1.67437 5.69504 1.65505 5.69686 1.63594 5.70008H1.3V5.14227L9.3 0.952428ZM2.1 6.50008H5.3V7.06024C5.3 7.21283 5.21275 7.30008 5.06015 7.30008H2.33984C2.18725 7.30008 2.1 7.21283 2.1 7.06024V6.50008ZM6.1 6.50008H6.9V7.06024C6.9 7.545 7.24572 7.9581 7.7 8.06883V15.3048H5.3V8.06883C5.75428 7.9581 6.1 7.545 6.1 7.06024V6.50008ZM7.7 6.50008H10.9V7.06024C10.9 7.21283 10.8127 7.30008 10.6602 7.30008H7.93984C7.78725 7.30008 7.7 7.21283 7.7 7.06024V6.50008ZM11.7 6.50008H12.5V7.06024C12.5 7.545 12.8457 7.9581 13.3 8.06883V15.3048H10.9V8.06883C11.3543 7.9581 11.7 7.545 11.7 7.06024V6.50008ZM13.3 6.50008H16.5V7.06024C16.5 7.21283 16.4127 7.30008 16.2602 7.30008H13.5398C13.3872 7.30008 13.3 7.21283 13.3 7.06024V6.50008ZM2.9 8.10008H4.5V15.3001H2.9V8.10008ZM8.5 8.10008H10.1V15.3001H8.5V8.10008ZM14.1 8.10008H15.7V15.3001H14.1V8.10008ZM0.893748 16.1016C0.90904 16.1036 0.92443 16.1046 0.939842 16.1048H17.6203C17.6341 16.1048 17.6602 16.127 17.6602 16.1532V17.2524C17.6602 17.2786 17.6341 17.3001 17.6203 17.3001H0.939842C0.926064 17.3001 0.899998 17.3093 0.899998 17.2118V16.1126C0.899998 16.1033 0.896532 16.1032 0.893748 16.1016Z" fill="#787486" stroke="#787486" stroke-width="0.2"/>
</svg>
